# Blender 4.2.1 LTS
# www.blender.org
o Cube
v -1 -1 -1
v 1 -1 -1
v -1 -1 1
v -1 1 -1
v -1 -0.815463 0.991468
v -1 -0.632501 0.965946
v -1 -0.452674 0.923651
v -1 -0.277517 0.864944
v -1 -0.108523 0.790327
v -1 0.052864 0.700434
v -1 0.205269 0.596034
v -1 0.347391 0.478018
v -1 0.478018 0.347391
v -1 0.596034 0.205269
v -1 0.700434 0.052864
v -1 0.790327 -0.108523
v -1 0.864944 -0.277517
v -1 0.923651 -0.452674
v -1 0.965946 -0.632501
v -1 0.991468 -0.815463
v 1 1 -1
v 1 -1 1
v 1 0.991468 -0.815463
v 1 0.965946 -0.632501
v 1 0.923651 -0.452674
v 1 0.864944 -0.277517
v 1 0.790327 -0.108523
v 1 0.700434 0.052864
v 1 0.596034 0.205269
v 1 0.478018 0.347391
v 1 0.347391 0.478018
v 1 0.205269 0.596034
v 1 0.052864 0.700434
v 1 -0.108523 0.790327
v 1 -0.277517 0.864944
v 1 -0.452674 0.923651
v 1 -0.632501 0.965946
v 1 -0.815463 0.991468
vn -0 -0 -1
vn -0 0.1413 -0.9900
vn -0.0268 -0.1975 -0.9799
vn -1 -0 -0
vn -0.9995 0.0307 -0.0027
vn -0.9900 0.0022 -0.1413
vn -0 -1 -0
vn 1 -0 -0
vn 0.9799 -0.0351 0.1962
vn 0.9999 0.0034 0.0150
vn -0.1975 0.9777 0.0720
vn -0.1413 0.9889 0.0457
vn -0.0309 0.9947 0.0976
vn 0.0053 0.9970 0.0776
vn -0 0.9830 0.1837
vn -0 0.9618 0.2737
vn -0 0.9325 0.3612
vn -0 0.8952 0.4457
vn -0 0.8502 0.5264
vn -0 0.7980 0.6026
vn -0 0.7390 0.6737
vn -0 0.6737 0.7390
vn -0 0.6026 0.7980
vn -0 0.5264 0.8502
vn -0 0.4457 0.8952
vn -0 0.3612 0.9325
vn -0 0.2737 0.9618
vn -0 0.1837 0.9830
vn -0 0.0923 0.9957
vn -0 0.0462 0.9989
vt 0.375 0.25
vt 0.625 0.25
vt 0.625 0.5
vt 0.375 0.5
vt 0.375 0
vt 0.398067 0.001066
vt 0.420937 0.004257
vt 0.443416 0.009544
vt 0.465310 0.016882
vt 0.486435 0.026209
vt 0.506608 0.037446
vt 0.525659 0.050496
vt 0.543424 0.065248
vt 0.559752 0.081576
vt 0.574504 0.099341
vt 0.587554 0.118392
vt 0.598791 0.138565
vt 0.608118 0.159690
vt 0.615456 0.181584
vt 0.620743 0.204063
vt 0.623934 0.226933
vt 0.125 0.5
vt 0.375 0.75
vt 0.125 0.75
vt 0.623934 0.523067
vt 0.620743 0.545937
vt 0.615456 0.568416
vt 0.608118 0.590310
vt 0.598791 0.611435
vt 0.587554 0.631608
vt 0.574504 0.650659
vt 0.559752 0.668424
vt 0.543424 0.684752
vt 0.525659 0.699504
vt 0.506608 0.712554
vt 0.486435 0.723791
vt 0.465310 0.733118
vt 0.443416 0.740456
vt 0.420937 0.745743
vt 0.398067 0.748933
vt 0.875 0.523067
vt 0.625 0.523067
vt 0.875 0.545937
vt 0.625 0.545937
vt 0.875 0.568416
vt 0.625 0.568416
vt 0.875 0.590310
vt 0.625 0.590310
vt 0.875 0.611435
vt 0.625 0.611435
vt 0.875 0.631608
vt 0.625 0.631608
vt 0.875 0.650659
vt 0.625 0.650659
vt 0.875 0.75
vt 0.625 0.75
vt 0.625 1
vt 0.543424 1
vt 0.543424 0.75
vt 0.525659 1
vt 0.525659 0.75
vt 0.506608 1
vt 0.506608 0.75
vt 0.486435 1
vt 0.486435 0.75
vt 0.465310 1
vt 0.465310 0.75
vt 0.443416 1
vt 0.443416 0.75
vt 0.420937 1
vt 0.420937 0.75
vt 0.398067 1
vt 0.398067 0.75
vt 0.375 1
s 1
f 1/1/1 4/2/2 21/3/3 2/4/1
f 3/5/4 5/6/4 6/7/4 7/8/4 8/9/4 9/10/4 10/11/4 11/12/4 12/13/4 13/14/4 14/15/4 15/16/4 16/17/4 17/18/4 18/19/4 19/20/4 20/21/5 4/2/6 1/1/4
f 1/22/7 2/4/7 22/23/7 3/24/7
f 2/4/8 21/3/9 23/25/10 24/26/8 25/27/8 26/28/8 27/29/8 28/30/8 29/31/8 30/32/8 31/33/8 32/34/8 33/35/8 34/36/8 35/37/8 36/38/8 37/39/8 38/40/8 22/23/8
f 21/3/11 4/2/12 20/41/13 23/25/14
f 23/42/14 20/41/13 19/43/15 24/44/15
f 24/44/15 19/43/15 18/45/16 25/46/16
f 25/46/16 18/45/16 17/47/17 26/48/17
f 26/48/17 17/47/17 16/49/18 27/50/18
f 27/50/18 16/49/18 15/51/19 28/52/19
f 28/52/19 15/51/19 14/53/20 29/54/20
f 29/54/20 14/53/20 13/55/21 30/56/21
f 30/56/21 13/57/21 12/58/22 31/59/22
f 31/59/22 12/58/22 11/60/23 32/61/23
f 32/61/23 11/60/23 10/62/24 33/63/24
f 33/63/24 10/62/24 9/64/25 34/65/25
f 34/65/25 9/64/25 8/66/26 35/67/26
f 35/67/26 8/66/26 7/68/27 36/69/27
f 36/69/27 7/68/27 6/70/28 37/71/28
f 37/71/28 6/70/28 5/72/29 38/73/29
f 38/73/29 5/72/29 3/74/30 22/23/30
