# Blender 4.2.1 LTS
# www.blender.org
o Cube
v -1 -1 1
v -1 1 1
v -1 1 -1
v -1 -0.815463 0.991468
v 1 -1 1
v -1 -0.632501 0.965946
v 1 1 1
v -1 -0.452674 0.923651
v -1 -0.277517 0.864944
v 1 1 -1
v -1 -0.108523 0.790327
v -1 0.052864 0.700434
v -1 0.205269 0.596034
v -1 0.347391 0.478018
v -1 0.478018 0.347391
v -1 0.596034 0.205269
v -1 0.700434 0.052864
v -1 0.790327 -0.108523
v -1 0.864944 -0.277517
v -1 0.923651 -0.452674
v -1 0.965946 -0.632501
v -1 0.991468 -0.815463
v 1 0.991468 -0.815463
v 1 0.965946 -0.632501
v 1 0.923651 -0.452674
v 1 0.864944 -0.277517
v 1 0.790327 -0.108523
v 1 0.700434 0.052864
v 1 0.596034 0.205269
v 1 0.478018 0.347391
v 1 0.347391 0.478018
v 1 0.205269 0.596034
v 1 0.052864 0.700434
v 1 -0.108523 0.790327
v 1 -0.277517 0.864944
v 1 -0.452674 0.923651
v 1 -0.632501 0.965946
v 1 -0.815463 0.991468
vn -1.0000 -0.0000 -0.0000
vn 1.0000 -0.0000 -0.0000
vn -0.0000 -0.0000 1.0000
vn -0.0000 1.0000 -0.0000
vn -0.0000 -0.9989 -0.0462
vn -0.0000 -0.9957 -0.0923
vn -0.0000 -0.9830 -0.1837
vn -0.0000 -0.9618 -0.2737
vn -0.0000 -0.9325 -0.3612
vn -0.0000 -0.8952 -0.4457
vn -0.0000 -0.8502 -0.5264
vn -0.0000 -0.7980 -0.6026
vn -0.0000 -0.7390 -0.6737
vn -0.0000 -0.6737 -0.7390
vn -0.0000 -0.6026 -0.7980
vn -0.0000 -0.5264 -0.8502
vn -0.0000 -0.4457 -0.8952
vn -0.0000 -0.3612 -0.9325
vn -0.0000 -0.2737 -0.9618
vn -0.0000 -0.1837 -0.9830
vn -0.0000 -0.0923 -0.9957
vn -0.0000 -0.0462 -0.9989
vt 0.625000 0
vt 0.625000 0.250000
vt 0.623933 0.226933
vt 0.620743 0.204063
vt 0.615456 0.181584
vt 0.608118 0.159690
vt 0.598791 0.138565
vt 0.587554 0.118392
vt 0.574504 0.099341
vt 0.559752 0.081576
vt 0.543424 0.065248
vt 0.525659 0.050496
vt 0.506608 0.037446
vt 0.486435 0.026209
vt 0.465310 0.016882
vt 0.443416 0.009544
vt 0.420937 0.004257
vt 0.398067 0.001066
vt 0.375000 0
vt 0.623933 0.523067
vt 0.625000 0.500000
vt 0.625000 0.750000
vt 0.375000 0.750000
vt 0.398067 0.748933
vt 0.420937 0.745743
vt 0.443416 0.740456
vt 0.465310 0.733118
vt 0.486435 0.723791
vt 0.506608 0.712554
vt 0.525659 0.699504
vt 0.543424 0.684752
vt 0.559752 0.668424
vt 0.574504 0.650659
vt 0.587554 0.631608
vt 0.598791 0.611435
vt 0.608118 0.590310
vt 0.615456 0.568416
vt 0.620743 0.545937
vt 0.625000 1
vt 0.375000 1
vt 0.875000 0.500000
vt 0.875000 0.750000
vt 0.623934 0.523067
vt 0.875000 0.523067
vt 0.625000 0.545937
vt 0.875000 0.545937
vt 0.625000 0.568416
vt 0.875000 0.568416
vt 0.625000 0.590310
vt 0.875000 0.590310
vt 0.625000 0.611435
vt 0.875000 0.611435
vt 0.625000 0.631608
vt 0.875000 0.631608
vt 0.625000 0.650659
vt 0.875000 0.650659
vt 0.543424 0.750000
vt 0.543424 1
vt 0.525659 0.750000
vt 0.525659 1
vt 0.506608 0.750000
vt 0.506608 1
vt 0.486435 0.750000
vt 0.486435 1
vt 0.465310 0.750000
vt 0.465310 1
vt 0.443416 0.750000
vt 0.443416 1
vt 0.420937 0.750000
vt 0.420937 1
vt 0.398067 0.750000
vt 0.398067 1
s 0
f 2/1/1 3/2/1 22/3/1 21/4/1 20/5/1 19/6/1 18/7/1 17/8/1 16/9/1 15/10/1 14/11/1 13/12/1 12/13/1 11/14/1 9/15/1 8/16/1 6/17/1 4/18/1 1/19/1
f 23/20/2 10/21/2 7/22/2 5/23/2 38/24/2 37/25/2 36/26/2 35/27/2 34/28/2 33/29/2 32/30/2 31/31/2 30/32/2 29/33/2 28/34/2 27/35/2 26/36/2 25/37/2 24/38/2
f 5/23/3 7/22/3 2/39/3 1/40/3
f 10/21/4 3/41/4 2/42/4 7/22/4
s 1
f 3/2/5 10/43/5 23/20/6 22/2/6
f 21/44/7 22/44/6 23/45/6 24/45/7
f 20/46/8 21/46/7 24/47/7 25/47/8
f 19/48/9 20/48/8 25/49/8 26/49/9
f 18/50/10 19/50/9 26/51/9 27/51/10
f 17/52/11 18/52/10 27/53/10 28/53/11
f 16/54/12 17/54/11 28/55/11 29/55/12
f 15/56/13 16/56/12 29/22/12 30/22/13
f 14/39/14 15/39/13 30/57/13 31/57/14
f 13/58/15 14/58/14 31/59/14 32/59/15
f 12/60/16 13/60/15 32/61/15 33/61/16
f 11/62/17 12/62/16 33/63/16 34/63/17
f 9/64/18 11/64/17 34/65/17 35/65/18
f 8/66/19 9/66/18 35/67/18 36/67/19
f 6/68/20 8/68/19 36/69/19 37/69/20
f 4/70/21 6/70/20 37/71/20 38/71/21
f 1/72/22 4/72/21 38/23/21 5/23/22
