# Blender 4.2.1 LTS
# www.blender.org
o Cube
v -1 -1 1
v 1 1 -1
v -1 -1 -1
v 1 -1 1
v 1 -1 -1
vn -0.7071 0.7071 -0.0000
vn -0.0000 -0.0000 -1.0000
vn 1.0000 -0.0000 -0.0000
vn -0.0000 0.7071 0.7071
vn -0.0000 -1.0000 -0.0000
vt 0.375000 0
vt 0.625000 0.250000
vt 0.375000 0.250000
vt 0.625000 0.500000
vt 0.375000 0.500000
vt 0.625000 0.750000
vt 0.375000 0.750000
vt 0.625000 1
vt 0.375000 1
vt 0.125000 0.500000
vt 0.125000 0.750000
s 0
f 1/1/1 2/2/1 3/3/1
f 3/3/2 2/4/2 5/5/2
f 5/5/3 2/6/3 4/7/3
f 4/7/4 2/8/4 1/9/4
f 3/10/5 5/5/5 4/7/5 1/11/5
