# Blender 4.2.1 LTS
# www.blender.org
o Cube
v 1 -1 1
v 1 0.991468 -0.815463
v 1 0.965946 -0.632501
v 1 0.923651 -0.452674
v 1 0.864944 -0.277517
v 1 0.790327 -0.108523
v 1 0.700434 0.052864
v 1 0.596034 0.205269
v 1 0.478018 0.347391
v 1 0.347391 0.478018
v 1 0.205269 0.596034
v 1 0.052864 0.700434
v 1 -0.108523 0.790327
v 1 -0.277517 0.864944
v 1 -0.452674 0.923651
v 1 -0.632501 0.965946
v 1 -0.815463 0.991468
v 0.815463 -1 0.991468
v 0.982973 0.991468 -0.81625
v 0.966092 0.965946 -0.634069
v 0.949499 0.923651 -0.455009
v 0.933338 0.864944 -0.280599
v 0.917745 0.790327 -0.112326
v 0.902854 0.700434 0.048373
v 0.888792 0.596034 0.200127
v 0.875678 0.478018 0.341643
v 0.863626 0.347391 0.471713
v 0.852737 0.205269 0.589226
v 0.843104 0.052864 0.69318
v 0.834809 -0.108523 0.78269
v 0.827925 -0.277517 0.856988
v 0.822508 -0.452674 0.915445
v 0.818605 -0.632501 0.95756
v 0.816251 -0.815463 0.982973
v 0.632501 -1 0.965946
v 0.966091 0.991468 -0.818605
v 0.932472 0.965946 -0.638758
v 0.899429 0.923651 -0.461993
v 0.867244 0.864944 -0.289819
v 0.836192 0.790327 -0.123702
v 0.806537 0.700434 0.034937
v 0.778532 0.596034 0.184747
v 0.752418 0.478018 0.324449
v 0.728415 0.347391 0.452852
v 0.70673 0.205269 0.568858
v 0.687546 0.052864 0.671481
v 0.671028 -0.108523 0.759843
v 0.657317 -0.277517 0.83319
v 0.64653 -0.452674 0.890897
v 0.638758 -0.632501 0.932472
v 0.634069 -0.815463 0.957559
v 0.452674 -1 0.923651
v 0.949499 0.991468 -0.822508
v 0.899429 0.965946 -0.64653
v 0.850217 0.923651 -0.473568
v 0.802283 0.864944 -0.305097
v 0.756036 0.790327 -0.142555
v 0.71187 0.700434 0.012672
v 0.670162 0.596034 0.159258
v 0.631269 0.478018 0.295955
v 0.595521 0.347391 0.421595
v 0.563225 0.205269 0.535106
v 0.534654 0.052864 0.635521
v 0.510054 -0.108523 0.721982
v 0.489634 -0.277517 0.793751
v 0.473568 -0.452674 0.850217
v 0.461993 -0.632501 0.890897
v 0.455009 -0.815463 0.915445
v 0.277517 -1 0.864944
v 0.933338 0.991468 -0.827924
v 0.867244 0.965946 -0.657318
v 0.802283 0.923651 -0.489634
v 0.739009 0.864944 -0.326305
v 0.677961 0.790327 -0.168723
v 0.619662 0.700434 -0.018234
v 0.564607 0.596034 0.12388
v 0.513266 0.478018 0.256404
v 0.466078 0.347391 0.37821
v 0.423446 0.205269 0.488257
v 0.385732 0.052864 0.585607
v 0.353259 -0.108523 0.66943
v 0.326305 -0.277517 0.739008
v 0.305097 -0.452674 0.793751
v 0.289818 -0.632501 0.83319
v 0.280599 -0.815463 0.856988
v 0.108523 -1 0.790327
v 0.917745 0.991468 -0.834809
v 0.836192 0.965946 -0.671028
v 0.756036 0.923651 -0.510054
v 0.677962 0.864944 -0.35326
v 0.602635 0.790327 -0.201983
v 0.530698 0.700434 -0.057515
v 0.462765 0.596034 0.078912
v 0.399416 0.478018 0.206135
v 0.341191 0.347391 0.323067
v 0.288586 0.205269 0.428711
v 0.242051 0.052864 0.522166
v 0.201983 -0.108523 0.602635
v 0.168723 -0.277517 0.669429
v 0.142555 -0.452674 0.721982
v 0.123703 -0.632501 0.759842
v 0.112327 -0.815463 0.782689
v -0.052864 -1 0.700434
v 0.902854 0.991468 -0.843104
v 0.806537 0.965946 -0.687546
v 0.71187 0.923651 -0.534654
v 0.619662 0.864944 -0.385733
v 0.530698 0.790327 -0.242051
v 0.445739 0.700434 -0.104837
v 0.365508 0.596034 0.02474
v 0.29069 0.478018 0.145575
v 0.221924 0.347391 0.256636
v 0.159796 0.205269 0.356975
v 0.104837 0.052864 0.445738
v 0.057514 -0.108523 0.522167
v 0.018234 -0.277517 0.585607
v -0.012672 -0.452674 0.635521
v -0.034937 -0.632501 0.671481
v -0.048373 -0.815463 0.69318
v -0.205269 -1 0.596034
v 0.888792 0.991468 -0.852736
v 0.778533 0.965946 -0.70673
v 0.670163 0.923651 -0.563225
v 0.564607 0.864944 -0.423446
v 0.462765 0.790327 -0.288586
v 0.365508 0.700434 -0.159797
v 0.273663 0.596034 -0.038175
v 0.188016 0.478018 0.075241
v 0.109295 0.347391 0.179484
v 0.038175 0.205269 0.273662
v -0.02474 0.052864 0.356975
v -0.078913 -0.108523 0.428712
v -0.12388 -0.277517 0.488257
v -0.159259 -0.452674 0.535107
v -0.184747 -0.632501 0.568858
v -0.200127 -0.815463 0.589225
v -0.347391 -1 0.478018
v 0.875678 0.991468 -0.863626
v 0.752418 0.965946 -0.728415
v 0.631269 0.923651 -0.595521
v 0.513266 0.864944 -0.466079
v 0.399416 0.790327 -0.341191
v 0.29069 0.700434 -0.221924
v 0.188016 0.596034 -0.109296
v 0.092269 0.478018 -0.004266
v 0.004266 0.347391 0.092268
v -0.075241 0.205269 0.179483
v -0.145575 0.052864 0.256636
v -0.206135 -0.108523 0.323067
v -0.256405 -0.277517 0.37821
v -0.295955 -0.452675 0.421595
v -0.324449 -0.632501 0.452851
v -0.341643 -0.815463 0.471712
v -0.478018 -1 0.347391
v 0.863626 0.991468 -0.875678
v 0.728415 0.965946 -0.752418
v 0.595521 0.923651 -0.631269
v 0.466079 0.864944 -0.513266
v 0.341191 0.790327 -0.399416
v 0.221924 0.700434 -0.29069
v 0.109295 0.596034 -0.188016
v 0.004266 0.478018 -0.092269
v -0.092268 0.347391 -0.004266
v -0.179483 0.205269 0.075241
v -0.256636 0.052864 0.145575
v -0.323067 -0.108524 0.206135
v -0.37821 -0.277517 0.256404
v -0.421595 -0.452675 0.295955
v -0.452851 -0.632502 0.324449
v -0.471712 -0.815463 0.341643
v -0.596034 -1 0.205269
v 0.852736 0.991468 -0.888792
v 0.70673 0.965946 -0.778532
v 0.563225 0.923651 -0.670163
v 0.423446 0.864944 -0.564607
v 0.288586 0.790327 -0.462765
v 0.159797 0.700434 -0.365508
v 0.038175 0.596034 -0.273663
v -0.075241 0.478018 -0.188016
v -0.179484 0.347391 -0.109295
v -0.273663 0.205269 -0.038175
v -0.356975 0.052864 0.02474
v -0.428712 -0.108524 0.078913
v -0.488257 -0.277518 0.12388
v -0.535106 -0.452675 0.159259
v -0.568858 -0.632502 0.184747
v -0.589225 -0.815463 0.200127
v -0.700434 -1 0.052864
v 0.843104 0.991468 -0.902854
v 0.687546 0.965946 -0.806537
v 0.534654 0.923651 -0.71187
v 0.385733 0.864944 -0.619662
v 0.242051 0.790327 -0.530698
v 0.104837 0.700434 -0.445739
v -0.02474 0.596034 -0.365508
v -0.145575 0.478018 -0.29069
v -0.256636 0.347391 -0.221924
v -0.356975 0.205269 -0.159797
v -0.445738 0.052864 -0.104837
v -0.522166 -0.108524 -0.057514
v -0.585607 -0.277518 -0.018234
v -0.635521 -0.452675 0.012672
v -0.67148 -0.632502 0.034937
v -0.69318 -0.815463 0.048372
v -0.790326 -1.000001 -0.108523
v 0.834809 0.991468 -0.917745
v 0.671029 0.965946 -0.836192
v 0.510054 0.923651 -0.756036
v 0.35326 0.864944 -0.677962
v 0.201983 0.790327 -0.602635
v 0.057515 0.700434 -0.530698
v -0.078912 0.596034 -0.462766
v -0.206135 0.478018 -0.399417
v -0.323067 0.347391 -0.341191
v -0.428711 0.205269 -0.288587
v -0.522166 0.052864 -0.242052
v -0.602635 -0.108524 -0.201983
v -0.669429 -0.277518 -0.168723
v -0.721982 -0.452675 -0.142555
v -0.759842 -0.632502 -0.123703
v -0.782688 -0.815464 -0.112327
v -0.864944 -1.000001 -0.277517
v 0.827925 0.991468 -0.933338
v 0.657318 0.965946 -0.867244
v 0.489634 0.923651 -0.802283
v 0.326305 0.864944 -0.739009
v 0.168723 0.790327 -0.677962
v 0.018234 0.700434 -0.619662
v -0.12388 0.596034 -0.564607
v -0.256404 0.478018 -0.513267
v -0.37821 0.347391 -0.466078
v -0.488257 0.205269 -0.423446
v -0.585607 0.052864 -0.385733
v -0.66943 -0.108524 -0.353259
v -0.739008 -0.277518 -0.326305
v -0.793751 -0.452675 -0.305097
v -0.833189 -0.632502 -0.289819
v -0.856988 -0.815464 -0.280599
v -0.923651 -1.000001 -0.452674
v 0.822508 0.991468 -0.949499
v 0.64653 0.965946 -0.899429
v 0.473568 0.923651 -0.850217
v 0.305097 0.864944 -0.802283
v 0.142555 0.790327 -0.756036
v -0.012671 0.700434 -0.71187
v -0.159258 0.596034 -0.670163
v -0.295955 0.478018 -0.631269
v -0.421595 0.347391 -0.595521
v -0.535106 0.205269 -0.563225
v -0.635521 0.052864 -0.534654
v -0.721982 -0.108524 -0.510054
v -0.79375 -0.277518 -0.489634
v -0.850217 -0.452675 -0.473568
v -0.890896 -0.632502 -0.461994
v -0.915444 -0.815464 -0.455009
v -0.965946 -1.000001 -0.632501
v 0.818605 0.991468 -0.966091
v 0.638759 0.965946 -0.932472
v 0.461993 0.923651 -0.899429
v 0.289819 0.864944 -0.867244
v 0.123702 0.790327 -0.836192
v -0.034937 0.700434 -0.806537
v -0.184747 0.596034 -0.778533
v -0.324448 0.478018 -0.752418
v -0.452852 0.347391 -0.728415
v -0.568858 0.205269 -0.70673
v -0.67148 0.052864 -0.687546
v -0.759843 -0.108524 -0.671028
v -0.833189 -0.277518 -0.657318
v -0.890897 -0.452675 -0.64653
v -0.932471 -0.632502 -0.638759
v -0.957559 -0.815464 -0.634069
v -0.991468 -1.000001 -0.815463
v 0.81625 0.991468 -0.982973
v 0.634069 0.965946 -0.966091
v 0.455009 0.923651 -0.949499
v 0.280599 0.864944 -0.933338
v 0.112326 0.790327 -0.917745
v -0.048372 0.700434 -0.902854
v -0.200127 0.596034 -0.888792
v -0.341642 0.478018 -0.875679
v -0.471713 0.347391 -0.863626
v -0.589225 0.205269 -0.852737
v -0.69318 0.052864 -0.843104
v -0.782689 -0.108524 -0.83481
v -0.856988 -0.277518 -0.827925
v -0.915445 -0.452675 -0.822508
v -0.957558 -0.632502 -0.818606
v -0.982972 -0.815464 -0.816251
v -0.999999 -1.000001 -1
v 0.815463 0.991468 -1
v 0.632501 0.965946 -1
v 0.452674 0.923651 -1
v 0.277517 0.864944 -1
v 0.108523 0.790327 -1
v -0.052863 0.700434 -1
v -0.205269 0.596034 -1
v -0.34739 0.478018 -1
v -0.478018 0.347391 -1
v -0.596033 0.205269 -1
v -0.700433 0.052864 -1
v -0.790327 -0.108524 -1
v -0.864943 -0.277518 -1
v -0.923651 -0.452675 -1
v -0.965945 -0.632502 -1
v -0.991467 -0.815464 -1
v 1 1 -1
v 1 -1 -1
vn -0.0861 0.3608 0.9287
vn -0.1714 0.3608 0.9168
vn -0.1768 0.2733 0.9455
vn -0.0888 0.2733 0.9578
vn -0.046 0.092 0.9947
vn -0.0919 0.0921 0.9915
vn -0.0922 0.0462 0.9947
vn -0.0461 0.0461 0.9979
vn -0.0454 0.1833 0.982
vn -0.0907 0.1835 0.9788
vn -0.0444 0.273 0.961
vn -0.0431 0.3604 0.9318
vn -0.0414 0.4448 0.8947
vn -0.0826 0.4452 0.8916
vn -0.0393 0.5254 0.8499
vn -0.0785 0.5258 0.847
vn -0.0369 0.6016 0.798
vn -0.0737 0.602 0.7951
vn -0.0342 0.6726 0.7392
vn -0.0682 0.673 0.7365
vn -0.0312 0.738 0.6741
vn -0.0622 0.7383 0.6716
vn -0.0279 0.7971 0.6033
vn -0.0557 0.7974 0.6009
vn -0.0244 0.8494 0.5273
vn -0.0487 0.8496 0.5252
vn -0.0207 0.8944 0.4467
vn -0.0412 0.8946 0.4449
vn -0.0168 0.9319 0.3624
vn -0.0334 0.932 0.3609
vn -0.0127 0.9614 0.2749
vn -0.0254 0.9615 0.2737
vn -0.0086 0.9827 0.1851
vn -0.0171 0.9827 0.1843
vn -0.0043 0.9956 0.0936
vn -0.0086 0.9956 0.0932
vn -0.1645 0.4452 0.8802
vn -0.245 0.4452 0.8612
vn -0.2552 0.3608 0.897
vn -0.0969 0.8496 0.5184
vn -0.1109 0.7974 0.5932
vn -0.1806 0.1835 0.9663
vn -0.1239 0.7383 0.663
vn -0.183 0.0921 0.9788
vn -0.1359 0.673 0.727
vn -0.0172 0.9956 0.092
vn -0.034 0.9827 0.1819
vn -0.2737 0.9615 0.0254
vn -0.1843 0.9827 0.0171
vn -0.1851 0.9827 0.0086
vn -0.2749 0.9614 0.0127
vn -0.1467 0.602 0.7849
vn -0.0505 0.9615 0.2702
vn -0.1563 0.5258 0.8361
vn -0.0666 0.932 0.3562
vn -0.0821 0.8946 0.4392
vn -0.2328 0.5258 0.8181
vn -0.3073 0.5258 0.7932
vn -0.3235 0.4452 0.835
vn -0.1223 0.8946 0.4298
vn -0.1443 0.8496 0.5073
vn -0.2632 0.2733 0.9252
vn -0.1652 0.7974 0.5805
vn -0.269 0.1835 0.9455
vn -0.1846 0.7383 0.6487
vn -0.2725 0.0921 0.9577
vn -0.2024 0.673 0.7114
vn -0.0256 0.9956 0.09
vn -0.0506 0.9827 0.178
vn -0.3609 0.932 0.0334
vn -0.3624 0.9319 0.0168
vn -0.2185 0.602 0.768
vn -0.0752 0.9615 0.2644
vn -0.0992 0.932 0.3486
vn -0.2885 0.602 0.7446
vn -0.3559 0.602 0.7148
vn -0.3791 0.5258 0.7614
vn -0.1309 0.932 0.3379
vn -0.1614 0.8946 0.4167
vn -0.3369 0.3608 0.8697
vn -0.1905 0.8496 0.4918
vn -0.3475 0.2733 0.897
vn -0.218 0.7974 0.5627
vn -0.3551 0.1835 0.9166
vn -0.2436 0.7383 0.6289
vn -0.3597 0.0921 0.9285
vn -0.2672 0.673 0.6897
vn -0.0338 0.9956 0.0873
vn -0.0669 0.9827 0.1726
vn -0.4449 0.8946 0.0412
vn -0.4467 0.8944 0.0207
vn -0.0993 0.9615 0.2564
vn -0.3297 0.673 0.6621
vn -0.3894 0.673 0.6288
vn -0.4204 0.602 0.6789
vn -0.1225 0.9615 0.2461
vn -0.1615 0.932 0.3244
vn -0.3991 0.4452 0.8016
vn -0.1992 0.8946 0.4
vn -0.4157 0.3608 0.8349
vn -0.2351 0.8496 0.4721
vn -0.4288 0.2733 0.8611
vn -0.269 0.7974 0.5402
vn -0.4382 0.1835 0.88
vn -0.3006 0.7383 0.6037
vn -0.4438 0.0921 0.8914
vn -0.0417 0.9956 0.0838
vn -0.0825 0.9827 0.1657
vn -0.5252 0.8496 0.0487
vn -0.5273 0.8494 0.0244
vn -0.355 0.7383 0.5734
vn -0.4064 0.7383 0.5382
vn -0.4457 0.673 0.5902
vn -0.0974 0.9827 0.1573
vn -0.1447 0.9615 0.2337
vn -0.4478 0.5258 0.7232
vn -0.1908 0.932 0.3081
vn -0.4714 0.4452 0.7613
vn -0.2352 0.8946 0.3799
vn -0.491 0.3608 0.793
vn -0.2776 0.8496 0.4484
vn -0.5064 0.2733 0.8178
vn -0.3177 0.7974 0.5131
vn -0.5175 0.1835 0.8358
vn -0.5242 0.0921 0.8466
vn -0.0493 0.9956 0.0796
vn -0.9915 0.0921 0.0919
vn -0.9947 0.092 0.046
vn -0.9979 0.0461 0.0461
vn -0.9947 0.0462 0.0922
vn -0.3637 0.7974 0.4816
vn -0.4066 0.7974 0.446
vn -0.4544 0.7383 0.4984
vn -0.0564 0.9956 0.0747
vn -0.1115 0.9827 0.1477
vn -0.9788 0.1835 0.0907
vn -0.982 0.1833 0.0454
vn -0.4812 0.602 0.6372
vn -0.1657 0.9615 0.2194
vn -0.5126 0.5258 0.6788
vn -0.2184 0.932 0.2892
vn -0.5396 0.4452 0.7146
vn -0.2693 0.8946 0.3566
vn -0.562 0.3608 0.7443
vn -0.3178 0.8496 0.4209
vn -0.5797 0.2733 0.7676
vn -0.5924 0.1835 0.7845
vn -0.6001 0.0921 0.7946
vn -0.3553 0.8496 0.3898
vn -0.3898 0.8496 0.3553
vn -0.446 0.7974 0.4066
vn -0.6623 0.1835 0.7265
vn -0.6708 0.0921 0.7359
vn -0.4983 0.673 0.5466
vn -0.0631 0.9956 0.0692
vn -0.1247 0.9827 0.1368
vn -0.9578 0.2733 0.0888
vn -0.961 0.273 0.0444
vn -0.538 0.602 0.5901
vn -0.1852 0.9615 0.2032
vn -0.573 0.5258 0.6286
vn -0.2442 0.932 0.2678
vn -0.6032 0.4452 0.6617
vn -0.301 0.8946 0.3302
vn -0.6283 0.3608 0.6892
vn -0.648 0.2733 0.7109
vn -0.3302 0.8946 0.301
vn -0.3566 0.8946 0.2693
vn -0.4209 0.8496 0.3178
vn -0.7109 0.2733 0.648
vn -0.7265 0.1835 0.6623
vn -0.4984 0.7383 0.4544
vn -0.7359 0.0921 0.6708
vn -0.5466 0.673 0.4983
vn -0.0692 0.9956 0.0631
vn -0.1368 0.9827 0.1247
vn -0.9287 0.3608 0.0861
vn -0.9318 0.3604 0.0431
vn -0.5901 0.602 0.538
vn -0.2032 0.9615 0.1852
vn -0.6286 0.5258 0.573
vn -0.2678 0.932 0.2442
vn -0.6617 0.4452 0.6032
vn -0.6892 0.3608 0.6283
vn -0.2892 0.932 0.2184
vn -0.3081 0.932 0.1908
vn -0.3799 0.8946 0.2352
vn -0.7443 0.3608 0.562
vn -0.7676 0.2733 0.5797
vn -0.4816 0.7974 0.3637
vn -0.7845 0.1835 0.5924
vn -0.5382 0.7383 0.4064
vn -0.7946 0.0921 0.6001
vn -0.5902 0.673 0.4457
vn -0.0747 0.9956 0.0564
vn -0.1477 0.9827 0.1115
vn -0.8916 0.4452 0.0826
vn -0.8947 0.4448 0.0414
vn -0.6372 0.602 0.4812
vn -0.2194 0.9615 0.1657
vn -0.6788 0.5258 0.5126
vn -0.7146 0.4452 0.5396
vn -0.2337 0.9615 0.1447
vn -0.2461 0.9615 0.1225
vn -0.3244 0.932 0.1615
vn -0.7613 0.4452 0.4714
vn -0.793 0.3608 0.491
vn -0.4484 0.8496 0.2776
vn -0.8178 0.2733 0.5064
vn -0.5131 0.7974 0.3177
vn -0.8358 0.1835 0.5175
vn -0.5734 0.7383 0.355
vn -0.8466 0.0921 0.5242
vn -0.6288 0.673 0.3894
vn -0.0796 0.9956 0.0493
vn -0.1573 0.9827 0.0974
vn -0.847 0.5258 0.0785
vn -0.8499 0.5254 0.0393
vn -0.6789 0.602 0.4204
vn -0.7232 0.5258 0.4478
vn -0.1657 0.9827 0.0825
vn -0.1726 0.9827 0.0669
vn -0.2564 0.9615 0.0993
vn -0.7614 0.5258 0.3791
vn -0.8016 0.4452 0.3991
vn -0.4 0.8946 0.1992
vn -0.8349 0.3608 0.4157
vn -0.4721 0.8496 0.2351
vn -0.8611 0.2733 0.4288
vn -0.5402 0.7974 0.269
vn -0.88 0.1835 0.4382
vn -0.6037 0.7383 0.3006
vn -0.8914 0.0921 0.4438
vn -0.6621 0.673 0.3297
vn -0.0838 0.9956 0.0417
vn -0.7951 0.602 0.0737
vn -0.798 0.6016 0.0369
vn -0.7148 0.602 0.3559
vn -0.0873 0.9956 0.0338
vn -0.7446 0.602 0.2885
vn -0.7932 0.5258 0.3073
vn -0.3379 0.932 0.1309
vn -0.835 0.4452 0.3235
vn -0.4167 0.8946 0.1614
vn -0.8697 0.3608 0.3369
vn -0.4918 0.8496 0.1905
vn -0.897 0.2733 0.3475
vn -0.5627 0.7974 0.218
vn -0.9166 0.1835 0.3551
vn -0.6289 0.7383 0.2436
vn -0.9285 0.0921 0.3597
vn -0.6897 0.673 0.2672
vn -0.09 0.9956 0.0256
vn -0.178 0.9827 0.0506
vn -0.7365 0.673 0.0682
vn -0.7392 0.6726 0.0342
vn -0.6716 0.7383 0.0622
vn -0.6741 0.738 0.0312
vn -0.7114 0.673 0.2024
vn -0.768 0.602 0.2185
vn -0.2644 0.9615 0.0752
vn -0.8181 0.5258 0.2328
vn -0.3486 0.932 0.0992
vn -0.8613 0.4452 0.245
vn -0.4298 0.8946 0.1223
vn -0.897 0.3608 0.2552
vn -0.5073 0.8496 0.1443
vn -0.9252 0.2733 0.2632
vn -0.5805 0.7974 0.1652
vn -0.9455 0.1835 0.269
vn -0.6487 0.7383 0.1846
vn -0.9577 0.0921 0.2725
vn -0.9663 0.1835 0.1806
vn -0.9788 0.0921 0.183
vn -0.663 0.7383 0.1239
vn -0.727 0.673 0.1359
vn -0.092 0.9956 0.0172
vn -0.1819 0.9827 0.034
vn -0.6009 0.7974 0.0557
vn -0.6033 0.7971 0.0279
vn -0.7849 0.602 0.1467
vn -0.2702 0.9615 0.0505
vn -0.8361 0.5258 0.1563
vn -0.3562 0.932 0.0666
vn -0.8802 0.4452 0.1645
vn -0.4392 0.8946 0.0821
vn -0.9168 0.3608 0.1714
vn -0.5184 0.8496 0.0969
vn -0.9455 0.2733 0.1768
vn -0.5932 0.7974 0.1109
vn -0.0932 0.9956 0.0086
vn -0.9315 0.0462 0.3609
vn -0.8942 0.0462 0.4453
vn -0.9819 0.0462 0.1836
vn -0.8493 0.0462 0.5259
vn -0.0936 0.9956 0.0043
vn -0.9608 0.0462 0.2734
vn -0.7972 0.0462 0.602
vn -0.7382 0.0462 0.673
vn -0.673 0.0462 0.7382
vn -0.602 0.0462 0.7972
vn -0.5259 0.0462 0.8493
vn -0.4453 0.0462 0.8942
vn -0.3609 0.0462 0.9315
vn -0.2734 0.0462 0.9608
vn -0.1836 0.0462 0.9819
vn -0.0295 0.9991 0.0295
vn 1 0 0
vn 0 0 -1
vn 0 -1 0
vt 0.46531 0.733118
vt 0.443416 0.740456
vt 0 0
vt 0.398067 0.748933
vt 0.420937 0.745743
vt 0.486435 0.723791
vt 0.506608 0.712554
vt 0.525659 0.699504
vt 0.543424 0.684752
vt 0.559752 0.668424
vt 0.574504 0.650659
vt 0.587554 0.631608
vt 0.598791 0.611435
vt 0.608118 0.59031
vt 0.615456 0.568416
vt 0.620743 0.545937
s 1
f 31/1/1 48/1/2 49/2/3 32/2/4
f 17/3/5 34/4/6 18/3/7 1/3/8
f 17/3/5 16/3/9 33/5/10 34/4/6
f 16/3/9 15/3/11 32/2/4 33/5/10
f 15/3/11 14/3/12 31/1/1 32/2/4
f 14/3/12 13/3/13 30/6/14 31/1/1
f 13/3/13 12/3/15 29/7/16 30/6/14
f 12/3/15 11/3/17 28/8/18 29/7/16
f 11/3/17 10/3/19 27/9/20 28/8/18
f 10/3/19 9/3/21 26/10/22 27/9/20
f 9/3/21 8/3/23 25/11/24 26/10/22
f 8/3/23 7/3/25 24/12/26 25/11/24
f 7/3/25 6/3/27 23/13/28 24/12/26
f 6/3/27 5/3/29 22/14/30 23/13/28
f 5/3/29 4/3/31 21/15/32 22/14/30
f 4/3/31 3/3/33 20/16/34 21/15/32
f 20/16/34 3/3/33 2/3/35 19/3/36
f 47/6/37 64/6/38 65/1/39 48/1/2
f 24/12/26 41/12/40 42/11/41 25/11/24
f 32/2/4 49/2/3 50/5/42 33/5/10
f 25/11/24 42/11/41 43/10/43 26/10/22
f 33/5/10 50/5/42 51/4/44 34/4/6
f 26/10/22 43/10/43 44/9/45 27/9/20
f 20/16/34 19/3/36 36/3/46 37/16/47
f 276/15/48 275/16/49 292/3/50 293/3/51
f 27/9/20 44/9/45 45/8/52 28/8/18
f 20/16/34 37/16/47 38/15/53 21/15/32
f 28/8/18 45/8/52 46/7/54 29/7/16
f 21/15/32 38/15/53 39/14/55 22/14/30
f 29/7/16 46/7/54 47/6/37 30/6/14
f 22/14/30 39/14/55 40/13/56 23/13/28
f 30/6/14 47/6/37 48/1/2 31/1/1
f 23/13/28 40/13/56 41/12/40 24/12/26
f 63/7/57 80/7/58 81/6/59 64/6/38
f 40/13/56 57/13/60 58/12/61 41/12/40
f 48/1/2 65/1/39 66/2/62 49/2/3
f 41/12/40 58/12/61 59/11/63 42/11/41
f 49/2/3 66/2/62 67/5/64 50/5/42
f 42/11/41 59/11/63 60/10/65 43/10/43
f 50/5/42 67/5/64 68/4/66 51/4/44
f 43/10/43 60/10/65 61/9/67 44/9/45
f 37/16/47 36/3/46 53/3/68 54/16/69
f 277/14/70 276/15/48 293/3/51 294/3/71
f 44/9/45 61/9/67 62/8/72 45/8/52
f 37/16/47 54/16/69 55/15/73 38/15/53
f 45/8/52 62/8/72 63/7/57 46/7/54
f 38/15/53 55/15/73 56/14/74 39/14/55
f 46/7/54 63/7/57 64/6/38 47/6/37
f 39/14/55 56/14/74 57/13/60 40/13/56
f 79/8/75 96/8/76 97/7/77 80/7/58
f 56/14/74 73/14/78 74/13/79 57/13/60
f 64/6/38 81/6/59 82/1/80 65/1/39
f 57/13/60 74/13/79 75/12/81 58/12/61
f 65/1/39 82/1/80 83/2/82 66/2/62
f 58/12/61 75/12/81 76/11/83 59/11/63
f 66/2/62 83/2/82 84/5/84 67/5/64
f 59/11/63 76/11/83 77/10/85 60/10/65
f 67/5/64 84/5/84 85/4/86 68/4/66
f 60/10/65 77/10/85 78/9/87 61/9/67
f 54/16/69 53/3/68 70/3/88 71/16/89
f 278/13/90 277/14/70 294/3/71 295/3/91
f 61/9/67 78/9/87 79/8/75 62/8/72
f 54/16/69 71/16/89 72/15/92 55/15/73
f 62/8/72 79/8/75 80/7/58 63/7/57
f 55/15/73 72/15/92 73/14/78 56/14/74
f 95/9/93 112/9/94 113/8/95 96/8/76
f 72/15/92 89/15/96 90/14/97 73/14/78
f 80/7/58 97/7/77 98/6/98 81/6/59
f 73/14/78 90/14/97 91/13/99 74/13/79
f 81/6/59 98/6/98 99/1/100 82/1/80
f 74/13/79 91/13/99 92/12/101 75/12/81
f 82/1/80 99/1/100 100/2/102 83/2/82
f 75/12/81 92/12/101 93/11/103 76/11/83
f 83/2/82 100/2/102 101/5/104 84/5/84
f 76/11/83 93/11/103 94/10/105 77/10/85
f 84/5/84 101/5/104 102/4/106 85/4/86
f 77/10/85 94/10/105 95/9/93 78/9/87
f 70/3/88 87/3/107 88/16/108 71/16/89
f 279/12/109 278/13/90 295/3/91 296/3/110
f 78/9/87 95/9/93 96/8/76 79/8/75
f 71/16/89 88/16/108 89/15/96 72/15/92
f 111/10/111 128/10/112 129/9/113 112/9/94
f 88/16/108 105/16/114 106/15/115 89/15/96
f 96/8/76 113/8/95 114/7/116 97/7/77
f 89/15/96 106/15/115 107/14/117 90/14/97
f 97/7/77 114/7/116 115/6/118 98/6/98
f 90/14/97 107/14/117 108/13/119 91/13/99
f 98/6/98 115/6/118 116/1/120 99/1/100
f 91/13/99 108/13/119 109/12/121 92/12/101
f 99/1/100 116/1/120 117/2/122 100/2/102
f 92/12/101 109/12/121 110/11/123 93/11/103
f 100/2/102 117/2/122 118/5/124 101/5/104
f 93/11/103 110/11/123 111/10/111 94/10/105
f 101/5/104 118/5/124 119/4/125 102/4/106
f 94/10/105 111/10/111 112/9/94 95/9/93
f 87/3/107 104/3/126 105/16/114 88/16/108
f 289/4/127 306/3/128 290/3/129 273/3/130
f 127/11/131 144/11/132 145/10/133 128/10/112
f 105/16/114 104/3/126 121/3/134 122/16/135
f 289/4/127 288/5/136 305/3/137 306/3/128
f 112/9/94 129/9/113 130/8/138 113/8/95
f 105/16/114 122/16/135 123/15/139 106/15/115
f 113/8/95 130/8/138 131/7/140 114/7/116
f 106/15/115 123/15/139 124/14/141 107/14/117
f 114/7/116 131/7/140 132/6/142 115/6/118
f 107/14/117 124/14/141 125/13/143 108/13/119
f 115/6/118 132/6/142 133/1/144 116/1/120
f 108/13/119 125/13/143 126/12/145 109/12/121
f 116/1/120 133/1/144 134/2/146 117/2/122
f 109/12/121 126/12/145 127/11/131 110/11/123
f 117/2/122 134/2/146 135/5/147 118/5/124
f 110/11/123 127/11/131 128/10/112 111/10/111
f 118/5/124 135/5/147 136/4/148 119/4/125
f 143/12/149 160/12/150 161/11/151 144/11/132
f 135/5/147 152/5/152 153/4/153 136/4/148
f 128/10/112 145/10/133 146/9/154 129/9/113
f 122/16/135 121/3/134 138/3/155 139/16/156
f 288/5/136 287/2/157 304/3/158 305/3/137
f 129/9/113 146/9/154 147/8/159 130/8/138
f 122/16/135 139/16/156 140/15/160 123/15/139
f 130/8/138 147/8/159 148/7/161 131/7/140
f 123/15/139 140/15/160 141/14/162 124/14/141
f 131/7/140 148/7/161 149/6/163 132/6/142
f 124/14/141 141/14/162 142/13/164 125/13/143
f 132/6/142 149/6/163 150/1/165 133/1/144
f 125/13/143 142/13/164 143/12/149 126/12/145
f 133/1/144 150/1/165 151/2/166 134/2/146
f 126/12/145 143/12/149 144/11/132 127/11/131
f 134/2/146 151/2/166 152/5/152 135/5/147
f 159/13/167 176/13/168 177/12/169 160/12/150
f 151/2/166 168/2/170 169/5/171 152/5/152
f 144/11/132 161/11/151 162/10/172 145/10/133
f 152/5/152 169/5/171 170/4/173 153/4/153
f 145/10/133 162/10/172 163/9/174 146/9/154
f 139/16/156 138/3/155 155/3/175 156/16/176
f 287/2/157 286/1/177 303/3/178 304/3/158
f 146/9/154 163/9/174 164/8/179 147/8/159
f 139/16/156 156/16/176 157/15/180 140/15/160
f 147/8/159 164/8/179 165/7/181 148/7/161
f 140/15/160 157/15/180 158/14/182 141/14/162
f 148/7/161 165/7/181 166/6/183 149/6/163
f 141/14/162 158/14/182 159/13/167 142/13/164
f 149/6/163 166/6/183 167/1/184 150/1/165
f 142/13/164 159/13/167 160/12/150 143/12/149
f 150/1/165 167/1/184 168/2/170 151/2/166
f 175/14/185 192/14/186 193/13/187 176/13/168
f 167/1/184 184/1/188 185/2/189 168/2/170
f 160/12/150 177/12/169 178/11/190 161/11/151
f 168/2/170 185/2/189 186/5/191 169/5/171
f 161/11/151 178/11/190 179/10/192 162/10/172
f 169/5/171 186/5/191 187/4/193 170/4/173
f 162/10/172 179/10/192 180/9/194 163/9/174
f 156/16/176 155/3/175 172/3/195 173/16/196
f 286/1/177 285/6/197 302/3/198 303/3/178
f 163/9/174 180/9/194 181/8/199 164/8/179
f 156/16/176 173/16/196 174/15/200 157/15/180
f 164/8/179 181/8/199 182/7/201 165/7/181
f 157/15/180 174/15/200 175/14/185 158/14/182
f 165/7/181 182/7/201 183/6/202 166/6/183
f 158/14/182 175/14/185 176/13/168 159/13/167
f 166/6/183 183/6/202 184/1/188 167/1/184
f 191/15/203 208/15/204 209/14/205 192/14/186
f 183/6/202 200/6/206 201/1/207 184/1/188
f 176/13/168 193/13/187 194/12/208 177/12/169
f 184/1/188 201/1/207 202/2/209 185/2/189
f 177/12/169 194/12/208 195/11/210 178/11/190
f 185/2/189 202/2/209 203/5/211 186/5/191
f 178/11/190 195/11/210 196/10/212 179/10/192
f 186/5/191 203/5/211 204/4/213 187/4/193
f 179/10/192 196/10/212 197/9/214 180/9/194
f 173/16/196 172/3/195 189/3/215 190/16/216
f 285/6/197 284/7/217 301/3/218 302/3/198
f 180/9/194 197/9/214 198/8/219 181/8/199
f 173/16/196 190/16/216 191/15/203 174/15/200
f 181/8/199 198/8/219 199/7/220 182/7/201
f 174/15/200 191/15/203 192/14/186 175/14/185
f 182/7/201 199/7/220 200/6/206 183/6/202
f 207/16/221 224/16/222 225/15/223 208/15/204
f 199/7/220 216/7/224 217/6/225 200/6/206
f 192/14/186 209/14/205 210/13/226 193/13/187
f 200/6/206 217/6/225 218/1/227 201/1/207
f 193/13/187 210/13/226 211/12/228 194/12/208
f 201/1/207 218/1/227 219/2/229 202/2/209
f 194/12/208 211/12/228 212/11/230 195/11/210
f 202/2/209 219/2/229 220/5/231 203/5/211
f 195/11/210 212/11/230 213/10/232 196/10/212
f 203/5/211 220/5/231 221/4/233 204/4/213
f 196/10/212 213/10/232 214/9/234 197/9/214
f 189/3/215 206/3/235 207/16/221 190/16/216
f 284/7/217 283/8/236 300/3/237 301/3/218
f 197/9/214 214/9/234 215/8/238 198/8/219
f 190/16/216 207/16/221 208/15/204 191/15/203
f 198/8/219 215/8/238 216/7/224 199/7/220
f 206/3/235 223/3/239 224/16/222 207/16/221
f 215/8/238 232/8/240 233/7/241 216/7/224
f 208/15/204 225/15/223 226/14/242 209/14/205
f 216/7/224 233/7/241 234/6/243 217/6/225
f 209/14/205 226/14/242 227/13/244 210/13/226
f 217/6/225 234/6/243 235/1/245 218/1/227
f 210/13/226 227/13/244 228/12/246 211/12/228
f 218/1/227 235/1/245 236/2/247 219/2/229
f 211/12/228 228/12/246 229/11/248 212/11/230
f 219/2/229 236/2/247 237/5/249 220/5/231
f 212/11/230 229/11/248 230/10/250 213/10/232
f 220/5/231 237/5/249 238/4/251 221/4/233
f 213/10/232 230/10/250 231/9/252 214/9/234
f 224/16/222 223/3/239 240/3/253 241/16/254
f 283/8/236 282/9/255 299/3/256 300/3/237
f 214/9/234 231/9/252 232/8/240 215/8/238
f 282/9/255 281/10/257 298/3/258 299/3/256
f 231/9/252 248/9/259 249/8/260 232/8/240
f 224/16/222 241/16/254 242/15/261 225/15/223
f 232/8/240 249/8/260 250/7/262 233/7/241
f 225/15/223 242/15/261 243/14/263 226/14/242
f 233/7/241 250/7/262 251/6/264 234/6/243
f 226/14/242 243/14/263 244/13/265 227/13/244
f 234/6/243 251/6/264 252/1/266 235/1/245
f 227/13/244 244/13/265 245/12/267 228/12/246
f 235/1/245 252/1/266 253/2/268 236/2/247
f 228/12/246 245/12/267 246/11/269 229/11/248
f 236/2/247 253/2/268 254/5/270 237/5/249
f 229/11/248 246/11/269 247/10/271 230/10/250
f 237/5/249 254/5/270 255/4/272 238/4/251
f 230/10/250 247/10/271 248/9/259 231/9/252
f 254/5/270 271/5/273 272/4/274 255/4/272
f 247/10/271 264/10/275 265/9/276 248/9/259
f 241/16/254 240/3/253 257/3/277 258/16/278
f 281/10/257 280/11/279 297/3/280 298/3/258
f 248/9/259 265/9/276 266/8/281 249/8/260
f 241/16/254 258/16/278 259/15/282 242/15/261
f 249/8/260 266/8/281 267/7/283 250/7/262
f 242/15/261 259/15/282 260/14/284 243/14/263
f 250/7/262 267/7/283 268/6/285 251/6/264
f 243/14/263 260/14/284 261/13/286 244/13/265
f 251/6/264 268/6/285 269/1/287 252/1/266
f 244/13/265 261/13/286 262/12/288 245/12/267
f 252/1/266 269/1/287 270/2/289 253/2/268
f 245/12/267 262/12/288 263/11/290 246/11/269
f 253/2/268 270/2/289 271/5/273 254/5/270
f 246/11/269 263/11/290 264/10/275 247/10/271
f 270/2/289 287/2/157 288/5/136 271/5/273
f 263/11/290 280/11/279 281/10/257 264/10/275
f 271/5/273 288/5/136 289/4/127 272/4/274
f 264/10/275 281/10/257 282/9/255 265/9/276
f 258/16/278 257/3/277 274/3/291 275/16/49
f 280/11/279 279/12/109 296/3/110 297/3/280
f 265/9/276 282/9/255 283/8/236 266/8/281
f 258/16/278 275/16/49 276/15/48 259/15/282
f 266/8/281 283/8/236 284/7/217 267/7/283
f 259/15/282 276/15/48 277/14/70 260/14/284
f 267/7/283 284/7/217 285/6/197 268/6/285
f 260/14/284 277/14/70 278/13/90 261/13/286
f 268/6/285 285/6/197 286/1/177 269/1/287
f 261/13/286 278/13/90 279/12/109 262/12/288
f 269/1/287 286/1/177 287/2/157 270/2/289
f 262/12/288 279/12/109 280/11/279 263/11/290
f 221/4/233 238/4/251 222/3/292 205/3/293
f 272/4/274 289/4/127 273/3/130 256/3/294
f 204/4/213 221/4/233 205/3/293 188/3/295
f 275/16/49 274/3/291 291/3/296 292/3/50
f 255/4/272 272/4/274 256/3/294 239/3/297
f 187/4/193 204/4/213 188/3/295 171/3/298
f 170/4/173 187/4/193 171/3/298 154/3/299
f 238/4/251 255/4/272 239/3/297 222/3/292
f 153/4/153 170/4/173 154/3/299 137/3/300
f 136/4/148 153/4/153 137/3/300 120/3/301
f 119/4/125 136/4/148 120/3/301 103/3/302
f 102/4/106 119/4/125 103/3/302 86/3/303
f 85/4/86 102/4/106 86/3/303 69/3/304
f 68/4/66 85/4/86 69/3/304 52/3/305
f 51/4/44 68/4/66 52/3/305 35/3/306
f 34/4/6 51/4/44 35/3/306 18/3/7
f 291/3/296 274/3/291 307/3/307
f 307/3/307 274/3/291 257/3/277
f 307/3/307 240/3/253 223/3/239
f 307/3/307 223/3/239 206/3/235
f 307/3/307 206/3/235 189/3/215
f 307/3/307 189/3/215 172/3/195
f 307/3/307 172/3/195 155/3/175
f 307/3/307 155/3/175 138/3/155
f 307/3/307 138/3/155 121/3/134
f 307/3/307 121/3/134 104/3/126
f 307/3/307 104/3/126 87/3/107
f 307/3/307 87/3/107 70/3/88
f 307/3/307 70/3/88 53/3/68
f 307/3/307 53/3/68 36/3/46
f 307/3/307 36/3/46 19/3/36
f 2/3/35 307/3/307 19/3/36
f 307/3/307 257/3/277 240/3/253
f 3/3/308 4/3/308 5/3/308 6/3/308 7/3/308 8/3/308 9/3/308 10/3/308 11/3/308 12/3/308 13/3/308 14/3/308 15/3/308 16/3/308 17/3/308 1/3/308 308/3/308 307/3/308 2/3/308
f 291/3/309 307/3/309 308/3/309 290/3/309 306/3/309 305/3/309 304/3/309 303/3/309 302/3/309 301/3/309 300/3/309 299/3/309 298/3/309 297/3/309 296/3/309 295/3/309 294/3/309 293/3/309 292/3/309
f 18/3/310 35/3/310 52/3/310 69/3/310 86/3/310 103/3/310 120/3/310 137/3/310 154/3/310 171/3/310 188/3/310 205/3/310 222/3/310 239/3/310 256/3/310 273/3/310 290/3/310 308/3/310 1/3/310
