# Blender 5.1.2
# www.blender.org
o Plane
v -76.000000 0.384615 16.000000
v -44.000004 0.384615 16.000000
v -76.000000 0.384615 -16.000000
v -44.000004 0.384615 -16.000000
v -80.000000 -0.615385 20.000000
v -40.000004 -0.615385 20.000000
v -80.000000 -0.615385 -20.000000
v -40.000004 -0.615385 -20.000000
v -36.000004 0.384615 16.000000
v -4.000004 0.384615 16.000000
v -36.000004 0.384615 -16.000000
v -4.000004 0.384615 -16.000000
v -0.000004 -0.615385 20.000000
v -0.000004 -0.615385 -20.000000
v 3.999996 0.384615 16.000000
v 35.999996 0.384615 16.000000
v 3.999996 0.384615 -16.000000
v 35.999996 0.384615 -16.000000
v 39.999996 -0.615385 20.000000
v 39.999996 -0.615385 -20.000000
v 43.999996 0.384615 16.000000
v 76.000000 0.384615 16.000000
v 43.999996 0.384615 -16.000000
v 76.000000 0.384615 -16.000000
v 80.000000 -0.615385 20.000000
v 80.000000 -0.615385 -20.000000
vn -0.2425 0.9701 -0.0000
vn -0.0000 0.9701 -0.2425
vn -0.0000 1.0000 -0.0000
vn 0.2425 0.9701 -0.0000
vn -0.0000 0.9701 0.2425
vt 0.000000 0.000000
s 0
f 1/1/1 3/1/1 7/1/1 5/1/1
f 3/1/2 4/1/2 11/1/2 12/1/2 17/1/2 18/1/2 23/1/2 24/1/2 26/1/2 20/1/2 14/1/2 8/1/2 7/1/2
f 2/1/3 9/1/3 11/1/3 4/1/3
f 24/1/4 22/1/4 25/1/4 26/1/4
f 10/1/3 15/1/3 17/1/3 12/1/3
f 23/1/3 18/1/3 16/1/3 21/1/3
f 2/1/5 1/1/5 5/1/5 6/1/5 13/1/5 19/1/5 25/1/5 22/1/5 21/1/5 16/1/5 15/1/5 10/1/5 9/1/5
